<mxfile host="app.diagrams.net" modified="2021-04-09T09:09:53.893Z" agent="5.0 (Windows NT 10.0; Win64; x64) AppleWebKit/537.36 (KHTML, like Gecko) Chrome/89.0.4389.114 Safari/537.36" etag="loYPHf8HZP0czpctA_L4" version="14.5.8" type="github">
  <diagram id="1L4XcPpSsIhO6-UYCCzw" name="Page-1">
    <mxGraphModel dx="981" dy="526" grid="1" gridSize="10" guides="1" tooltips="1" connect="1" arrows="1" fold="1" page="1" pageScale="1" pageWidth="827" pageHeight="1169" math="0" shadow="0">
      <root>
        <mxCell id="0" />
        <mxCell id="1" parent="0" />
        <mxCell id="RSWtb9Q0RPRxmCBt2XrI-6" style="rounded=0;orthogonalLoop=1;jettySize=auto;html=1;exitX=0.5;exitY=0;exitDx=0;exitDy=0;entryX=0.5;entryY=1;entryDx=0;entryDy=0;" edge="1" parent="1" source="RSWtb9Q0RPRxmCBt2XrI-1" target="RSWtb9Q0RPRxmCBt2XrI-5">
          <mxGeometry relative="1" as="geometry" />
        </mxCell>
        <mxCell id="RSWtb9Q0RPRxmCBt2XrI-1" value="admin" style="rounded=0;whiteSpace=wrap;html=1;" vertex="1" parent="1">
          <mxGeometry x="190" y="490" width="90" height="50" as="geometry" />
        </mxCell>
        <mxCell id="RSWtb9Q0RPRxmCBt2XrI-7" style="edgeStyle=none;rounded=0;orthogonalLoop=1;jettySize=auto;html=1;exitX=0.5;exitY=0;exitDx=0;exitDy=0;entryX=0.5;entryY=1;entryDx=0;entryDy=0;" edge="1" parent="1" source="RSWtb9Q0RPRxmCBt2XrI-2" target="RSWtb9Q0RPRxmCBt2XrI-5">
          <mxGeometry relative="1" as="geometry" />
        </mxCell>
        <mxCell id="RSWtb9Q0RPRxmCBt2XrI-2" value="search" style="rounded=0;whiteSpace=wrap;html=1;" vertex="1" parent="1">
          <mxGeometry x="300" y="490" width="90" height="50" as="geometry" />
        </mxCell>
        <mxCell id="RSWtb9Q0RPRxmCBt2XrI-8" style="edgeStyle=none;rounded=0;orthogonalLoop=1;jettySize=auto;html=1;exitX=0.5;exitY=0;exitDx=0;exitDy=0;entryX=0.5;entryY=1;entryDx=0;entryDy=0;" edge="1" parent="1" source="RSWtb9Q0RPRxmCBt2XrI-3" target="RSWtb9Q0RPRxmCBt2XrI-5">
          <mxGeometry relative="1" as="geometry" />
        </mxCell>
        <mxCell id="RSWtb9Q0RPRxmCBt2XrI-3" value="portal" style="rounded=0;whiteSpace=wrap;html=1;" vertex="1" parent="1">
          <mxGeometry x="410" y="490" width="90" height="50" as="geometry" />
        </mxCell>
        <mxCell id="RSWtb9Q0RPRxmCBt2XrI-10" value="" style="edgeStyle=none;rounded=0;orthogonalLoop=1;jettySize=auto;html=1;" edge="1" parent="1" source="RSWtb9Q0RPRxmCBt2XrI-5" target="RSWtb9Q0RPRxmCBt2XrI-9">
          <mxGeometry relative="1" as="geometry" />
        </mxCell>
        <mxCell id="RSWtb9Q0RPRxmCBt2XrI-5" value="mbg" style="rounded=0;whiteSpace=wrap;html=1;" vertex="1" parent="1">
          <mxGeometry x="300" y="400" width="90" height="50" as="geometry" />
        </mxCell>
        <mxCell id="RSWtb9Q0RPRxmCBt2XrI-9" value="common" style="rounded=0;whiteSpace=wrap;html=1;" vertex="1" parent="1">
          <mxGeometry x="300" y="330" width="90" height="50" as="geometry" />
        </mxCell>
        <mxCell id="RSWtb9Q0RPRxmCBt2XrI-12" style="edgeStyle=none;rounded=0;orthogonalLoop=1;jettySize=auto;html=1;exitX=0.5;exitY=0;exitDx=0;exitDy=0;entryX=0.5;entryY=1;entryDx=0;entryDy=0;" edge="1" parent="1" source="RSWtb9Q0RPRxmCBt2XrI-11" target="RSWtb9Q0RPRxmCBt2XrI-9">
          <mxGeometry relative="1" as="geometry" />
        </mxCell>
        <mxCell id="RSWtb9Q0RPRxmCBt2XrI-11" value="auth" style="rounded=0;whiteSpace=wrap;html=1;" vertex="1" parent="1">
          <mxGeometry x="410" y="400" width="90" height="50" as="geometry" />
        </mxCell>
        <mxCell id="RSWtb9Q0RPRxmCBt2XrI-14" style="edgeStyle=none;rounded=0;orthogonalLoop=1;jettySize=auto;html=1;exitX=0.5;exitY=0;exitDx=0;exitDy=0;entryX=0.5;entryY=1;entryDx=0;entryDy=0;" edge="1" parent="1" source="RSWtb9Q0RPRxmCBt2XrI-13" target="RSWtb9Q0RPRxmCBt2XrI-5">
          <mxGeometry relative="1" as="geometry" />
        </mxCell>
        <mxCell id="RSWtb9Q0RPRxmCBt2XrI-13" value="demo" style="rounded=0;whiteSpace=wrap;html=1;" vertex="1" parent="1">
          <mxGeometry x="520" y="490" width="90" height="50" as="geometry" />
        </mxCell>
        <mxCell id="RSWtb9Q0RPRxmCBt2XrI-16" style="edgeStyle=none;rounded=0;orthogonalLoop=1;jettySize=auto;html=1;exitX=0.5;exitY=0;exitDx=0;exitDy=0;entryX=0.5;entryY=1;entryDx=0;entryDy=0;" edge="1" parent="1" source="RSWtb9Q0RPRxmCBt2XrI-15" target="RSWtb9Q0RPRxmCBt2XrI-9">
          <mxGeometry relative="1" as="geometry" />
        </mxCell>
        <mxCell id="RSWtb9Q0RPRxmCBt2XrI-15" value="gateway" style="rounded=0;whiteSpace=wrap;html=1;" vertex="1" parent="1">
          <mxGeometry x="520" y="400" width="90" height="50" as="geometry" />
        </mxCell>
        <mxCell id="RSWtb9Q0RPRxmCBt2XrI-17" value="monitor" style="rounded=0;whiteSpace=wrap;html=1;" vertex="1" parent="1">
          <mxGeometry x="410" y="330" width="90" height="50" as="geometry" />
        </mxCell>
      </root>
    </mxGraphModel>
  </diagram>
</mxfile>
